<?xml version="1.0" standalone="no"?>
<!DOCTYPE svg PUBLIC "-//W3C//DTD SVG 20010904//EN"
 "http://www.w3.org/TR/2001/REC-SVG-20010904/DTD/svg10.dtd">
<svg version="1.0" xmlns="http://www.w3.org/2000/svg"
 width="90.000000pt" height="90.000000pt" viewBox="0 0 90.000000 90.000000"
 preserveAspectRatio="xMidYMid meet">
<metadata>
Created by potrace 1.11, written by Peter Selinger 2001-2013
</metadata>
<g transform="translate(0.000000,90.000000) scale(0.100000,-0.100000)"
fill="#000000" stroke="none">
<path d="M0 449 c0 -382 -3 -360 48 -311 8 7 30 25 50 40 21 15 46 35 57 46
11 10 30 25 42 33 19 12 23 25 23 64 l0 49 213 0 c220 0 237 -3 237 -41 0 -27
-31 -32 -185 -31 -148 0 -153 -1 -210 -53 -112 -103 -132 -122 -139 -133 -6
-10 57 -12 286 -11 281 1 366 8 353 29 -4 6 0 10 9 10 25 0 91 84 94 120 1 17
3 34 4 38 7 26 -18 87 -48 117 -21 21 -29 35 -20 35 21 0 64 55 75 95 5 20 8
52 5 73 -4 39 -33 112 -44 112 -3 0 -21 15 -39 33 l-34 32 -388 3 -389 3 0
-352z m649 154 c27 -7 28 -48 2 -63 -12 -6 -103 -10 -225 -10 l-206 0 0 40 0
40 204 -1 c112 0 213 -3 225 -6z"/>
</g>
</svg>
